<svg width="16" height="16" viewBox="0 0 16 16" fill="none" xmlns="http://www.w3.org/2000/svg">
<path id="currency_exchange" d="M8 15.898C6.30365 15.898 4.79403 15.4298 3.47115 14.4934C2.14772 13.557 1.18066 12.2949 0.569975 10.7072V13.5367H0V9.7097H3.82697V10.2797H1.03817C1.52672 11.7996 2.41561 13.021 3.70483 13.9438C4.99406 14.8666 6.42578 15.328 8 15.328C8.96353 15.328 9.86952 15.1584 10.718 14.8191C11.5659 14.4798 12.3155 14.0081 12.9669 13.404C13.6183 12.8003 14.1508 12.0811 14.5645 11.2462C14.9787 10.4119 15.2265 9.50614 15.3079 8.52904H15.8779C15.81 9.56042 15.5557 10.524 15.1149 11.4196C14.6736 12.3153 14.1036 13.0956 13.405 13.7606C12.7058 14.4256 11.8916 14.948 10.9622 15.328C10.0324 15.708 9.04495 15.898 8 15.898ZM0.122137 7.47052C0.217133 6.37128 0.491806 5.3703 0.946158 4.46757C1.40105 3.56538 1.98487 2.78859 2.69761 2.13719C3.4098 1.48579 4.22053 0.983666 5.12977 0.630825C6.03902 0.277983 6.99576 0.101562 8 0.101562C9.65564 0.101562 11.1653 0.573013 12.5289 1.51591C13.893 2.45936 14.86 3.74533 15.43 5.37383V2.46289H16V6.28986H12.173V5.71988H14.9618C14.514 4.25423 13.6422 3.04643 12.3465 2.09647C11.0502 1.14652 9.60136 0.671537 8 0.671537C7.09075 0.671537 6.21544 0.834387 5.37404 1.16009C4.53265 1.48579 3.77947 1.94367 3.1145 2.53373C2.44953 3.12433 1.89991 3.8368 1.46565 4.67113C1.03138 5.50601 0.773537 6.43914 0.692112 7.47052H0.122137ZM7.6743 13.2924H8.28499V12.356C8.84139 12.3289 9.39427 12.1354 9.94361 11.7755C10.4935 11.4161 10.7684 10.8497 10.7684 10.0761C10.7684 9.50614 10.592 9.03116 10.2392 8.65118C9.88634 8.2712 9.22137 7.90478 8.24427 7.55194C7.32146 7.22624 6.7447 6.94804 6.51399 6.71734C6.28329 6.48663 6.16794 6.15415 6.16794 5.71988C6.16794 5.28562 6.34083 4.9192 6.68661 4.62065C7.03294 4.32209 7.48431 4.17281 8.04071 4.17281C8.44784 4.17281 8.79389 4.26428 9.07888 4.44721C9.36387 4.63069 9.60136 4.86492 9.79135 5.14991L10.3206 4.94635C10.117 4.57993 9.83532 4.27785 9.47542 4.04009C9.11606 3.80287 8.73282 3.67069 8.3257 3.64355V2.70716H7.71501V3.64355C6.99576 3.75211 6.45645 4.00643 6.0971 4.4065C5.7372 4.80711 5.55725 5.2449 5.55725 5.71988C5.55725 6.28986 5.74046 6.74448 6.10687 7.08375C6.47328 7.42302 7.10432 7.75551 8 8.08121C8.8821 8.40691 9.46918 8.70221 9.76122 8.96711C10.0527 9.23147 10.1985 9.60114 10.1985 10.0761C10.1985 10.6868 9.97455 11.1243 9.52672 11.3887C9.07888 11.6536 8.61069 11.786 8.12214 11.786C7.64716 11.786 7.21615 11.6503 6.82911 11.3789C6.44261 11.1075 6.12723 10.7275 5.88295 10.239L5.35369 10.4832C5.59796 11.0125 5.91362 11.4196 6.30066 11.7046C6.68716 11.9896 7.14504 12.1932 7.6743 12.3153V13.2924Z" fill="#B2D349"/>
</svg>
